<svg width="170" height="57" viewBox="0 0 170 57" fill="none" xmlns="http://www.w3.org/2000/svg">
<rect x="0.5" y="0.5" width="169" height="56" rx="28" fill="white"/>
<rect x="0.5" y="0.5" width="169" height="56" rx="28" stroke="white"/>
<g clip-path="url(#clip0_386_898)">
<g clip-path="url(#clip1_386_898)">
<g clip-path="url(#clip2_386_898)">
<path d="M1.01562 28.665C1.01562 13.386 13.4016 1 28.6806 1H141.317C156.596 1 168.982 13.386 168.982 28.665C168.982 43.944 156.596 56.33 141.317 56.33H28.6806C13.4016 56.33 1.01562 43.944 1.01562 28.665Z" fill="white"/>
<path d="M44.9552 27.954C44.9265 24.6777 47.7237 23.085 47.8472 23.0119C46.2594 20.7789 43.8022 20.4667 42.9426 20.439C40.8825 20.2286 38.8788 21.6385 37.8305 21.6385C36.7624 21.6385 35.1371 20.4667 33.3982 20.4943C31.1583 20.5309 29.0508 21.7847 27.9076 23.744C25.5364 27.7258 27.303 33.5848 29.5804 36.8058C30.7245 38.3807 32.0465 40.1474 33.7953 40.0841C35.4958 40.0199 36.139 39.0309 38.1891 39.0309C40.2304 39.0309 40.8252 40.0841 42.6017 40.0476C44.4355 40.0199 45.5787 38.4637 46.6843 36.871C47.9984 35.0669 48.527 33.2825 48.5457 33.1906C48.4983 33.1728 44.9927 31.8726 44.9552 27.954ZM41.5988 18.3256C42.5157 17.218 43.1402 15.7073 42.9693 14.1699C41.6463 14.2243 39.9834 15.0572 39.029 16.146C38.1881 17.1083 37.4323 18.6734 37.621 20.1475C39.1139 20.2562 40.6444 19.4144 41.5988 18.3256ZM69.6363 39.8559H67.2552L65.951 35.883H61.4159L60.1779 39.8549H57.8619L62.3506 26.3356H65.1289L69.6363 39.8559ZM65.5637 34.2172L64.382 30.6928C64.2594 30.3273 64.0233 29.4845 63.6834 28.1477H63.636C63.4937 28.7247 63.2773 29.5764 62.974 30.6928L61.8121 34.2172H65.5637ZM81.1736 34.8673C81.1736 36.5242 80.7102 37.8334 79.7756 38.7937C78.9436 39.6543 77.9042 40.0762 76.6761 40.0762C75.3432 40.0762 74.3888 39.6178 73.8029 38.693V43.811H71.563V33.3111C71.563 32.2678 71.5353 31.2056 71.478 30.1069H73.4442L73.5667 31.6542H73.6043C74.3512 30.4913 75.4855 29.9054 76.9972 29.9054C78.1878 29.9054 79.1709 30.3638 79.9643 31.2689C80.7764 32.1848 81.1736 33.3754 81.1736 34.8673ZM78.8962 34.9404C78.8962 33.9889 78.6788 33.2104 78.2342 32.5968C77.753 31.9565 77.1009 31.6354 76.2878 31.6354C75.7404 31.6354 75.2395 31.8192 74.786 32.167C74.3406 32.5149 74.0298 33.0066 73.9066 33.5581C73.8466 33.7731 73.8118 33.9942 73.8029 34.2172V35.8474C73.8029 36.5519 74.0301 37.1556 74.4747 37.6407C74.9184 38.1258 75.5043 38.3728 76.2226 38.3728C77.0624 38.3728 77.7145 38.0527 78.1878 37.4303C78.6601 36.7979 78.8962 35.9749 78.8962 34.9404ZM92.7406 34.8673C92.7406 36.5242 92.2782 37.8334 91.3425 38.7937C90.5106 39.6543 89.4712 40.0762 88.243 40.0762C86.9102 40.0762 85.9557 39.6178 85.3698 38.693V43.811H83.1309V33.3111C83.1309 32.2678 83.1023 31.2056 83.046 30.1069H85.0112L85.1337 31.6542H85.1722C85.9182 30.4913 87.0524 29.9054 88.5641 29.9054C89.7547 29.9054 90.7378 30.3638 91.5312 31.2689C92.3444 32.1848 92.7406 33.3754 92.7406 34.8673ZM90.4631 34.9404C90.4631 33.9889 90.2458 33.2104 89.8012 32.5968C89.32 31.9565 88.6679 31.6354 87.8547 31.6354C87.3074 31.6354 86.8074 31.8192 86.3529 32.167C85.9106 32.5176 85.6005 33.0082 85.4736 33.5581C85.4136 33.7731 85.3788 33.9942 85.3698 34.2172V35.8474C85.3698 36.5519 85.5971 37.1556 86.0417 37.6407C86.4853 38.1258 87.0712 38.3728 87.7895 38.3728C88.6303 38.3728 89.2913 38.0527 89.7557 37.4303C90.2369 36.7979 90.4631 35.9749 90.4631 34.9404ZM105.687 36.0658C105.687 37.2198 105.271 38.1535 104.449 38.8767C103.542 39.6642 102.275 40.0574 100.65 40.0574C99.148 40.0574 97.9475 39.7739 97.0405 39.2156L97.5602 37.4125C98.5446 37.9727 99.6595 38.2631 100.792 38.2543C101.633 38.2543 102.294 38.0715 102.757 37.7049C103.23 37.3394 103.466 36.8453 103.466 36.2308C103.47 35.9734 103.42 35.7179 103.321 35.4803C103.222 35.2426 103.075 35.0279 102.89 34.8495C102.502 34.4741 101.859 34.1253 100.962 33.8052C98.4959 32.9179 97.2766 31.6265 97.2766 29.933C97.2766 28.8264 97.7114 27.9194 98.571 27.2061C99.4305 26.5006 100.575 26.1439 102.001 26.1439C103.267 26.1439 104.326 26.3544 105.167 26.7842L104.6 28.5419C103.807 28.1299 102.918 27.9194 101.916 27.9194C101.132 27.9194 100.508 28.1121 100.064 28.4777C99.6954 28.8166 99.5066 29.2187 99.5066 29.7048C99.5066 30.2354 99.724 30.684 100.149 31.0228C100.517 31.343 101.198 31.6908 102.181 32.0662C103.381 32.5336 104.26 33.0819 104.826 33.7143C105.403 34.3456 105.687 35.1331 105.687 36.0658ZM113.096 31.7362H110.63V36.4689C110.63 37.6684 111.065 38.2721 111.934 38.2721C112.33 38.2721 112.661 38.2355 112.926 38.1713L112.992 39.8193C112.548 39.9745 111.972 40.0565 111.253 40.0565C110.365 40.0565 109.685 39.7917 109.184 39.27C108.684 38.7483 108.437 37.8699 108.437 36.6428V31.7283H106.973V30.1079H108.437V28.3225L110.63 27.6823V30.1079H113.096V31.7382V31.7362ZM124.189 34.9039C124.189 36.4057 123.745 37.6318 122.866 38.5932C121.94 39.5812 120.712 40.0752 119.18 40.0752C117.706 40.0752 116.526 39.601 115.646 38.6574C114.768 37.7138 114.333 36.5153 114.333 35.0689C114.333 33.5581 114.787 32.3221 115.685 31.3617C116.592 30.4004 117.81 29.9153 119.341 29.9153C120.816 29.9153 122.006 30.3915 122.903 31.343C123.764 32.2589 124.189 33.4485 124.189 34.9039ZM121.874 34.9503C121.874 34.0532 121.675 33.2934 121.278 32.6521C120.806 31.8745 120.135 31.4892 119.265 31.4892C118.368 31.4892 117.679 31.8745 117.215 32.6521C116.809 33.2934 116.619 34.0709 116.619 34.9957C116.619 35.8929 116.818 36.6616 117.215 37.2929C117.697 38.0715 118.377 38.4558 119.247 38.4558C120.097 38.4558 120.768 38.0626 121.259 37.2751C121.666 36.6161 121.874 35.8474 121.874 34.9503ZM131.467 32.0109C131.232 31.9731 130.995 31.9549 130.758 31.9565C129.974 31.9565 129.36 32.2401 128.934 32.8161C128.566 33.32 128.377 33.9702 128.377 34.7388V39.8569H126.137V33.1738C126.137 32.0474 126.118 31.0228 126.071 30.1069H128.017L128.103 31.9743H128.169C128.406 31.3341 128.774 30.8124 129.284 30.4271C129.755 30.0889 130.32 29.9065 130.899 29.9054C131.108 29.9054 131.297 29.9242 131.458 29.9419L131.467 32.0109ZM141.461 34.5195C141.461 34.9039 141.433 35.2329 141.376 35.4977H134.667C134.695 36.46 135.017 37.201 135.64 37.7049C136.207 38.1535 136.934 38.3817 137.833 38.3817C138.825 38.3817 139.732 38.2266 140.544 37.9243L140.893 39.4261C139.939 39.8282 138.815 40.0298 137.52 40.0298C135.961 40.0298 134.733 39.5812 133.845 38.693C132.957 37.8057 132.512 36.6062 132.512 35.1143C132.512 33.649 132.928 32.4229 133.76 31.4438C134.628 30.3994 135.8 29.8777 137.274 29.8777C138.721 29.8777 139.826 30.3994 140.563 31.4438C141.158 32.2856 141.461 33.3013 141.461 34.5195ZM139.325 33.9603C139.344 33.32 139.193 32.7618 138.891 32.2944C138.503 31.6908 137.908 31.3884 137.114 31.3884C136.386 31.3884 135.791 31.6809 135.338 32.2678C134.96 32.7535 134.73 33.3382 134.676 33.9514L139.325 33.9603ZM64.4877 21.5021H63.3159L62.6736 19.5527H60.4427L59.8291 21.5021H58.6948L60.8972 14.8566H62.2577L64.4877 21.5021ZM62.4751 18.7287L61.898 16.9898C61.8417 16.8159 61.7281 16.395 61.5483 15.735H61.5295C61.4544 16.0195 61.3596 16.4315 61.1995 16.9898L60.6324 18.7287H62.4751ZM70.0088 16.7042L68.1375 21.5011H67.0704L65.2554 16.7042H66.4361L67.2779 19.2405C67.4192 19.6614 67.5417 20.0645 67.6366 20.4489H67.6652C67.7502 20.1011 67.8727 19.698 68.0239 19.2405L68.8558 16.7042H70.0088ZM73.9936 21.5021L73.9086 20.9538H73.879C73.5401 21.3925 73.0579 21.6128 72.4345 21.6128C71.5452 21.6128 70.9228 21.0081 70.9228 20.2029C70.9228 19.0222 71.98 18.4086 73.8138 18.4086V18.3167C73.8138 17.6854 73.464 17.3741 72.7832 17.3741C72.2922 17.3741 71.8673 17.4927 71.4889 17.7308L71.2617 17.0352C71.7162 16.7606 72.2922 16.6232 72.9631 16.6232C74.2574 16.6232 74.9095 17.2822 74.9095 18.6092V20.3768C74.9095 20.8609 74.9292 21.2364 74.9856 21.5209L73.9936 21.5021ZM73.8424 19.1131C72.6232 19.1131 72.0086 19.3966 72.0086 20.0833C72.0086 20.5872 72.3208 20.8342 72.7645 20.8342C73.3227 20.8342 73.8414 20.4222 73.8414 19.8551V19.1141L73.8424 19.1131ZM77.3598 15.9178C77.2744 15.9203 77.1894 15.9055 77.1098 15.8743C77.0303 15.8432 76.9579 15.7962 76.8969 15.7363C76.836 15.6764 76.7878 15.6048 76.7553 15.5257C76.7228 15.4467 76.7066 15.362 76.7077 15.2765C76.7077 14.9109 77.0012 14.6452 77.3796 14.6452C77.757 14.6452 78.0593 14.9109 78.0504 15.2775C78.0504 15.6619 77.7669 15.9178 77.3608 15.9178H77.3598ZM76.8312 16.7052H77.9279V21.4923H76.8312V16.7052ZM79.8793 14.5088H80.975V21.4932H79.8783V14.5078L79.8793 14.5088ZM85.6435 21.5021L85.5585 20.9528H85.5289C85.19 21.3925 84.7078 21.6118 84.0844 21.6118C83.1951 21.6118 82.5727 21.0081 82.5727 20.2019C82.5727 19.0212 83.6299 18.4076 85.4637 18.4076V18.3167C85.4637 17.6844 85.1139 17.3741 84.4341 17.3741C83.9421 17.3741 83.5173 17.4927 83.1398 17.7298L82.9126 17.0263C83.3661 16.7517 83.9421 16.6143 84.613 16.6143C85.9073 16.6143 86.5594 17.2733 86.5594 18.6003V20.3669C86.5594 20.852 86.5792 21.2275 86.6256 21.511H85.6435V21.5021ZM85.4923 19.1131C84.2731 19.1131 83.6585 19.3966 83.6585 20.0833C83.6585 20.5872 83.9708 20.8342 84.4144 20.8342C84.9726 20.8342 85.4913 20.4222 85.4913 19.8541L85.4923 19.1131ZM91.0243 21.6108C90.3248 21.6108 89.8051 21.3273 89.4652 20.7601H89.4455L89.3803 21.5011H88.4446C88.4732 21.1168 88.4821 20.687 88.4821 20.2108V14.5078H89.5887V17.4097H89.6065C89.9375 16.8791 90.4572 16.6133 91.1854 16.6133C92.376 16.6133 93.2069 17.6014 93.2069 19.039C93.2069 20.522 92.2811 21.6108 91.0243 21.6108ZM90.7971 17.4462C90.1648 17.4462 89.5877 17.9768 89.5877 18.7188V19.5606C89.5877 20.2197 90.1074 20.7601 90.7783 20.7601C91.6004 20.7601 92.0924 20.11 92.0924 19.0755C92.0924 18.1053 91.5806 17.4462 90.7971 17.4462ZM94.8303 14.5088H95.927V21.4932H94.8303V14.5078V14.5088ZM101.908 19.3601H98.6105C98.6293 20.2671 99.2527 20.7789 100.17 20.7789C100.624 20.7825 101.075 20.7052 101.501 20.5507L101.671 21.2917C101.209 21.4932 100.661 21.5851 100.018 21.5851C98.4682 21.5851 97.5513 20.6416 97.5513 19.1684C97.5513 17.7031 98.487 16.5955 99.8949 16.5955C101.152 16.5955 101.955 17.5016 101.955 18.8749C101.955 19.0676 101.946 19.2326 101.908 19.3601ZM100.907 18.6003C100.907 17.8592 100.518 17.3376 99.8198 17.3376C99.1865 17.3376 98.6955 17.8681 98.6194 18.6003H100.907ZM108.572 21.6108C107.125 21.6108 106.19 20.5675 106.19 19.1486C106.19 17.6666 107.144 16.6133 108.657 16.6133C110.084 16.6133 111.038 17.6112 111.038 19.0666C111.038 20.5586 110.055 21.6108 108.572 21.6108ZM108.618 17.3919C107.825 17.3919 107.315 18.1142 107.315 19.1121C107.315 20.1001 107.835 20.8145 108.609 20.8145C109.384 20.8145 109.904 20.0458 109.904 19.0854C109.895 18.1142 109.394 17.3919 108.618 17.3919ZM116.942 21.5021H115.846V18.7455C115.846 17.8958 115.506 17.4739 114.844 17.4739C114.192 17.4739 113.748 18.0144 113.748 18.6457V21.4923H112.651V18.0786C112.651 17.6567 112.643 17.1992 112.614 16.7052H113.577L113.625 17.4462H113.653C113.946 16.9344 114.551 16.6044 115.222 16.6044C116.262 16.6044 116.942 17.3731 116.942 18.627V21.5021ZM124.132 17.5105H122.923V19.8353C122.923 20.4311 123.139 20.7245 123.565 20.7245C123.754 20.7245 123.924 20.7048 124.056 20.6781L124.085 21.4834C123.868 21.5654 123.584 21.6019 123.234 21.6019C122.365 21.6019 121.855 21.1356 121.855 19.9272V17.5105H121.137V16.7141H121.855V15.8348L122.932 15.5146V16.7052H124.141V17.5105M129.955 21.5021H128.859V18.7653C128.859 17.9057 128.518 17.4749 127.857 17.4749C127.29 17.4749 126.762 17.8504 126.762 18.6102V21.4932H125.665V14.5078H126.762V17.383H126.78C127.13 16.8613 127.621 16.6054 128.263 16.6054C129.313 16.6054 129.955 17.3919 129.955 18.6467V21.5021ZM135.565 19.3601H132.268C132.287 20.2671 132.91 20.7789 133.827 20.7789C134.318 20.7789 134.763 20.6969 135.159 20.5507L135.329 21.2917C134.866 21.4932 134.318 21.5851 133.676 21.5851C132.126 21.5851 131.209 20.6416 131.209 19.1684C131.209 17.7031 132.144 16.5955 133.552 16.5955C134.809 16.5955 135.612 17.5016 135.612 18.8749C135.612 19.0676 135.604 19.2326 135.565 19.3601ZM134.564 18.6003C134.564 17.8592 134.177 17.3376 133.477 17.3376C132.844 17.3376 132.343 17.8681 132.277 18.6003H134.564Z" fill="#1F1E1E"/>
</g>
</g>
</g>
<defs>
<clipPath id="clip0_386_898">
<rect width="168" height="55.33" fill="white" transform="translate(1 1)"/>
</clipPath>
<clipPath id="clip1_386_898">
<rect width="168" height="55.33" fill="white" transform="translate(1 1)"/>
</clipPath>
<clipPath id="clip2_386_898">
<rect width="167.966" height="55.33" fill="white" transform="translate(1.01562 1)"/>
</clipPath>
</defs>
</svg>
