<svg width="143" height="47" viewBox="0 0 143 47" fill="none" xmlns="http://www.w3.org/2000/svg">
<g clip-path="url(#clip0_112_677)">
<path d="M0.630859 23.345C0.630859 10.4518 11.0826 0 23.9759 0H119.301C132.194 0 142.646 10.4518 142.646 23.345C142.646 36.2382 132.194 46.69 119.301 46.69H23.9759C11.0826 46.69 0.630859 36.2382 0.630859 23.345Z" fill="#1F1E1E"/>
<path d="M37.8491 22.7459C37.8257 19.9805 40.1855 18.6362 40.2896 18.574C38.9492 16.6898 36.8764 16.4272 36.1507 16.4038C34.4125 16.2258 32.7219 17.4155 31.8368 17.4155C30.936 17.4155 29.5645 16.4272 28.0967 16.4505C26.2077 16.4807 24.4296 17.54 23.4647 19.1926C21.4628 22.5523 22.954 27.4956 24.8751 30.2153C25.84 31.544 26.9567 33.0342 28.4323 32.9807C29.867 32.9263 30.4098 32.0927 32.1403 32.0927C33.862 32.0927 34.3648 32.9807 35.8638 32.9496C37.4104 32.9263 38.3753 31.6131 39.3081 30.2688C40.417 28.7475 40.8635 27.2408 40.8791 27.1639C40.8402 27.1484 37.8812 26.0512 37.8491 22.7459ZM35.0175 14.6199C35.7908 13.6851 36.3171 12.4109 36.1741 11.1133C35.0574 11.159 33.6548 11.8623 32.8484 12.7815C32.1383 13.5927 31.5012 14.9137 31.6607 16.1568C32.9204 16.2502 34.2121 15.5391 35.0175 14.6199ZM58.6767 32.7881H56.6661L55.567 29.4342H51.7394L50.6947 32.7872H48.7415L52.5282 21.3773H54.8725L58.6757 32.7872L58.6767 32.7881ZM55.2401 28.0297L54.2431 25.0561C54.139 24.7468 53.9396 24.0357 53.6527 22.9083H53.6138C53.4932 23.3947 53.3103 24.1135 53.0545 25.0561L52.074 28.0297H55.2401ZM68.4126 28.5783C68.4126 29.977 68.0215 31.081 67.2327 31.8923C66.5304 32.6179 65.654 32.9739 64.6161 32.9739C63.4926 32.9739 62.6872 32.5878 62.1931 31.8067V36.1255H60.3031V27.2651C60.3031 26.3848 60.2788 25.4889 60.2311 24.561H61.8896L61.9937 25.8673H62.0258C62.6551 24.8859 63.6113 24.3917 64.8884 24.3917C65.8923 24.3917 66.722 24.7779 67.3922 25.5424C68.0779 26.3148 68.4126 27.3196 68.4126 28.5783ZM66.4905 28.6405C66.4905 27.8371 66.3076 27.1805 65.9322 26.663C65.5256 26.1222 64.976 25.8518 64.2902 25.8518C63.8272 25.8518 63.4051 26.0064 63.0218 26.2992C62.6473 26.6007 62.3925 26.9869 62.2806 27.4733C62.2242 27.697 62.1931 27.8828 62.1931 28.0297V29.4051C62.1931 29.9994 62.3837 30.5091 62.7592 30.9186C63.1337 31.3281 63.6278 31.5372 64.2338 31.5372C64.9439 31.5372 65.4944 31.2668 65.8923 30.7416C66.2911 30.2085 66.4905 29.513 66.4905 28.6405ZM78.1727 28.5783C78.1727 29.977 77.7827 31.081 76.9928 31.8923C76.2915 32.6179 75.4141 32.9739 74.3772 32.9739C73.2537 32.9739 72.4483 32.5878 71.9532 31.8067V36.1255H70.0642V27.2651C70.0642 26.3848 70.0399 25.4889 69.9922 24.561H71.6507L71.7538 25.8673H71.7859C72.4162 24.8859 73.3734 24.3917 74.6486 24.3917C75.6534 24.3917 76.4831 24.7779 77.1523 25.5424C77.8381 26.3148 78.1727 27.3196 78.1727 28.5783ZM76.2516 28.6405C76.2516 27.8371 76.0678 27.1805 75.6933 26.663C75.2867 26.1222 74.7361 25.8518 74.0504 25.8518C73.5883 25.8518 73.1652 26.0064 72.7829 26.2992C72.4096 26.5951 72.1479 27.0091 72.0408 27.4733C71.9853 27.697 71.9532 27.8828 71.9532 28.0297V29.4051C71.9532 29.9994 72.1448 30.5091 72.5193 30.9186C72.8948 31.3281 73.3889 31.5372 73.9949 31.5372C74.705 31.5372 75.2624 31.2668 75.6534 30.7416C76.06 30.2085 76.2516 29.513 76.2516 28.6405ZM89.0972 29.5899C89.0972 30.5636 88.747 31.3515 88.0525 31.9623C87.287 32.6257 86.219 32.9584 84.8474 32.9584C83.579 32.9584 82.5664 32.7191 81.8009 32.2483L82.2396 30.726C83.0704 31.1987 84.0113 31.4437 84.9671 31.4361C85.6772 31.4361 86.2345 31.2824 86.6255 30.9731C87.0244 30.6637 87.2238 30.2474 87.2238 29.7299C87.2238 29.266 87.0565 28.8798 86.7374 28.5627C86.4106 28.2466 85.8678 27.9528 85.1101 27.6824C83.0285 26.9334 82.0003 25.844 82.0003 24.4141C82.0003 23.4803 82.367 22.7157 83.0927 22.1127C83.8183 21.5183 84.7832 21.2178 85.9874 21.2178C87.0565 21.2178 87.9494 21.3948 88.6585 21.7576L88.1799 23.241C87.5107 22.8928 86.7607 22.7157 85.9155 22.7157C85.254 22.7157 84.7278 22.8782 84.3533 23.1865C84.042 23.4725 83.8825 23.812 83.8825 24.2215C83.8825 24.6699 84.0654 25.0483 84.4243 25.3343C84.7356 25.6047 85.3095 25.8984 86.1392 26.2146C87.1518 26.6085 87.893 27.0725 88.3716 27.6055C88.8579 28.1386 89.0972 28.802 89.0972 29.5899ZM95.3507 25.9364H93.2691V29.9303C93.2691 30.9419 93.6359 31.4516 94.3683 31.4516C94.7039 31.4516 94.9831 31.4205 95.2068 31.367L95.2622 32.758C94.8877 32.8883 94.4014 32.9584 93.7954 32.9584C93.0454 32.9584 92.4715 32.7346 92.0484 32.294C91.6262 31.8534 91.4191 31.1122 91.4191 30.0762V25.9286H90.1827V24.5619H91.4181V23.0552L93.2682 22.5144V24.5619H95.3498L95.3507 25.9364ZM104.711 28.6094C104.711 29.8768 104.336 30.9118 103.594 31.7221C102.812 32.5566 101.776 32.9739 100.485 32.9739C99.2406 32.9739 98.2436 32.5722 97.5024 31.7775C96.7602 30.9808 96.3935 29.9683 96.3935 28.7485C96.3935 27.4742 96.7767 26.4315 97.5345 25.6203C98.3 24.809 99.3281 24.3995 100.62 24.3995C101.864 24.3995 102.869 24.8012 103.627 25.6057C104.352 26.377 104.711 27.3818 104.711 28.6094ZM102.757 28.6483C102.757 27.8915 102.59 27.2505 102.255 26.7097C101.856 26.0531 101.29 25.7282 100.556 25.7282C99.7989 25.7282 99.2163 26.0531 98.8262 26.7097C98.4829 27.2505 98.3233 27.9061 98.3233 28.6872C98.3233 29.444 98.4906 30.0928 98.8262 30.6258C99.2328 31.2824 99.8067 31.6063 100.54 31.6063C101.258 31.6063 101.824 31.2746 102.238 30.6102C102.582 30.0539 102.757 29.4051 102.757 28.6483ZM110.852 26.1679C110.654 26.1361 110.454 26.1208 110.254 26.1222C109.592 26.1222 109.074 26.3615 108.715 26.8478C108.404 27.2729 108.245 27.8205 108.245 28.4703V32.7891H106.355V27.1484C106.355 26.198 106.338 25.3333 106.299 24.561H107.941L108.013 26.1368H108.069C108.268 25.5959 108.58 25.1553 109.01 24.8314C109.408 24.5458 109.884 24.3917 110.373 24.3908C110.549 24.3908 110.709 24.4063 110.844 24.4219L110.852 26.1669V26.1679ZM119.285 28.2845C119.285 28.6094 119.261 28.8876 119.213 29.1113H113.552C113.575 29.9225 113.847 30.548 114.373 30.9731C114.852 31.3514 115.465 31.544 116.223 31.544C117.061 31.544 117.826 31.4127 118.512 31.1579L118.807 32.4253C118.001 32.7658 117.053 32.935 115.96 32.935C114.644 32.935 113.607 32.5557 112.859 31.8067C112.109 31.0577 111.734 30.0461 111.734 28.7864C111.734 27.5511 112.084 26.5161 112.787 25.6893C113.52 24.809 114.509 24.3684 115.752 24.3684C116.973 24.3684 117.906 24.809 118.527 25.6893C119.03 26.3994 119.285 27.2573 119.285 28.2845ZM117.483 27.8137C117.499 27.2729 117.372 26.8021 117.116 26.4072C116.789 25.8975 116.287 25.6426 115.617 25.6426C115.003 25.6426 114.5 25.8897 114.118 26.3848C113.807 26.7787 113.615 27.2573 113.56 27.805L117.483 27.8137ZM54.3316 17.3007H53.3424L52.8006 15.6558H50.9174L50.399 17.3007H49.4428L51.3007 11.693H52.4485L54.3316 17.3007ZM52.6333 14.9603L52.1469 13.4925C52.0983 13.3466 52.003 12.9906 51.8512 12.4342H51.8357C51.7715 12.6735 51.6917 13.0217 51.5565 13.4925L51.0779 14.9603H52.6333ZM58.9909 13.2523L57.4112 17.2997H56.5105L54.9795 13.2523H55.9755L56.6856 15.3922C56.8052 15.7473 56.9093 16.0867 56.9881 16.4116H57.0124C57.0844 16.1179 57.1875 15.7784 57.3159 15.3913L58.0172 13.2513H58.9899L58.9909 13.2523ZM62.3526 17.3007L62.2816 16.8377H62.2573C61.9703 17.2073 61.5637 17.3941 61.0375 17.3941C60.2885 17.3941 59.7613 16.8834 59.7613 16.2035C59.7613 15.2074 60.6542 14.6899 62.2018 14.6899V14.6121C62.2018 14.08 61.9061 13.8174 61.3322 13.8174C60.9466 13.8102 60.5672 13.9149 60.2399 14.119L60.0482 13.5314C60.4315 13.2999 60.9178 13.1842 61.484 13.1842C62.5763 13.1842 63.1269 13.7396 63.1269 14.8602V16.3503C63.1269 16.7599 63.1424 17.077 63.1901 17.3162L62.3526 17.3007ZM62.2261 15.2843C61.197 15.2843 60.6786 15.5245 60.6786 16.1033C60.6786 16.5283 60.9412 16.7365 61.3166 16.7365C61.7865 16.7365 62.2252 16.3893 62.2252 15.9097L62.2261 15.2843ZM65.1939 12.5879C65.1219 12.5899 65.0503 12.5773 64.9833 12.5509C64.9163 12.5246 64.8553 12.4849 64.804 12.4344C64.7527 12.3839 64.7121 12.3236 64.6846 12.257C64.6572 12.1905 64.6435 12.1191 64.6443 12.0471C64.6443 11.7387 64.8913 11.514 65.2104 11.514C65.5294 11.514 65.7843 11.7378 65.7765 12.0471C65.7765 12.372 65.5372 12.5879 65.1939 12.5879ZM64.7474 13.2523H65.6724V17.2919H64.7484L64.7474 13.2523ZM67.3192 11.3993H68.2443V17.2929H67.3202V11.3983L67.3192 11.3993ZM72.1838 17.3007L72.1118 16.8367H72.0874C71.8005 17.2073 71.3939 17.3931 70.8677 17.3931C70.1187 17.3931 69.5925 16.8834 69.5925 16.2035C69.5925 15.2074 70.4854 14.6899 72.032 14.6899V14.6121C72.032 14.0791 71.7373 13.8164 71.1624 13.8164C70.7768 13.8092 70.3973 13.9139 70.07 14.118L69.8794 13.5237C70.2617 13.2912 70.748 13.1754 71.3141 13.1754C72.4065 13.1754 72.9571 13.7318 72.9571 14.8514V16.3426C72.9571 16.7521 72.9726 17.0692 73.0125 17.3085H72.1838V17.3007ZM72.0563 15.2843C71.0272 15.2843 70.5097 15.5235 70.5097 16.1033C70.5097 16.5283 70.7723 16.7365 71.1468 16.7365C71.6176 16.7365 72.0563 16.3893 72.0563 15.9097V15.2843ZM76.7243 17.3921C76.1349 17.3921 75.6962 17.1528 75.4092 16.6743H75.3927L75.3373 17.2997H74.5474C74.5713 16.9371 74.582 16.5737 74.5795 16.2103V11.3983H75.5133V13.8466H75.5289C75.8081 13.3991 76.2458 13.1754 76.8605 13.1754C77.8653 13.1754 78.5667 14.009 78.5667 15.222C78.5667 16.4729 77.7856 17.3921 76.7243 17.3921ZM76.5327 13.8777C75.9987 13.8777 75.5124 14.3252 75.5124 14.9516V15.6617C75.5124 16.2181 75.951 16.6733 76.5172 16.6733C77.2107 16.6733 77.626 16.1256 77.626 15.2531C77.626 14.4341 77.1951 13.8777 76.5327 13.8777ZM79.9362 11.3993H80.8603V17.2929H79.9362V11.3993ZM85.9087 15.4934H83.1257C83.1413 16.2579 83.6675 16.6898 84.4418 16.6898C84.8562 16.6898 85.2307 16.6208 85.5653 16.4972L85.7093 17.1227C85.3182 17.2929 84.8562 17.3697 84.3134 17.3697C83.0061 17.3697 82.2318 16.5741 82.2318 15.3309C82.2318 14.0956 83.0217 13.1599 84.2103 13.1599C85.2706 13.1599 85.9485 13.9254 85.9485 15.0839C85.9485 15.2453 85.9408 15.3854 85.9087 15.4924V15.4934ZM85.0624 14.8514C85.0624 14.2259 84.7365 13.7853 84.1461 13.7853C83.6111 13.7853 83.1977 14.2337 83.1335 14.8514H85.0624ZM91.5319 17.3921C90.3111 17.3921 89.5223 16.5118 89.5223 15.3144C89.5223 14.0635 90.3277 13.1744 91.6039 13.1744C92.8071 13.1744 93.6125 14.0168 93.6125 15.2453C93.6125 16.504 92.7847 17.3921 91.5319 17.3921ZM91.5708 13.832C90.9016 13.832 90.4716 14.4419 90.4716 15.2833C90.4716 16.1179 90.9094 16.72 91.563 16.72C92.2176 16.72 92.6554 16.0712 92.6554 15.2609C92.6476 14.4419 92.2254 13.831 91.5718 13.831L91.5708 13.832ZM98.5947 17.2997H97.6697V14.9749C97.6697 14.2571 97.3827 13.9011 96.8244 13.9011C96.2748 13.9011 95.9003 14.3573 95.9003 14.8903V17.2929H94.9743V14.4108C94.9743 14.0557 94.9665 13.6696 94.9432 13.2532H95.7564L95.7953 13.8787H95.8196C96.0676 13.4458 96.5783 13.1676 97.1434 13.1676C98.0208 13.1676 98.5947 13.8164 98.5947 14.8747V17.2997ZM104.662 13.9322H103.642V15.8941C103.642 16.3961 103.825 16.6431 104.184 16.6431C104.343 16.6431 104.486 16.6285 104.598 16.6042L104.623 17.2851C104.439 17.3542 104.199 17.3853 103.905 17.3853C103.171 17.3853 102.74 16.9914 102.74 15.971V13.9322H102.134V13.261H102.74V12.5188L103.65 12.2484V13.2523H104.67V13.9322M109.577 17.3007H108.652V14.9895C108.652 14.2639 108.365 13.9001 107.806 13.9001C107.328 13.9001 106.881 14.2172 106.881 14.8582V17.2919H105.956V11.3973H106.881V13.8232H106.897C107.192 13.3836 107.607 13.1667 108.149 13.1667C109.034 13.1667 109.577 13.831 109.577 14.8893V17.3007ZM114.311 15.4934H111.528C111.543 16.2579 112.07 16.6898 112.843 16.6898C113.257 16.6898 113.633 16.6208 113.967 16.4972L114.111 17.1227C113.72 17.2929 113.257 17.3697 112.716 17.3697C111.408 17.3697 110.634 16.5741 110.634 15.3309C110.634 14.0956 111.424 13.1599 112.611 13.1599C113.673 13.1599 114.351 13.9254 114.351 15.0839C114.351 15.2453 114.342 15.3854 114.311 15.4924V15.4934ZM113.465 14.8514C113.465 14.2259 113.139 13.7853 112.548 13.7853C112.014 13.7853 111.591 14.2337 111.536 14.8514H113.465Z" fill="white"/>
</g>
<defs>
<clipPath id="clip0_112_677">
<rect width="142.988" height="46.69" fill="white" transform="translate(0.00585938)"/>
</clipPath>
</defs>
</svg>
