<svg width="122" height="47" viewBox="0 0 122 47" fill="none" xmlns="http://www.w3.org/2000/svg">
<g id="appsumo-logo-vector 2">
<path id="Vector" d="M75.0156 25.6723C75.0156 28.5752 73.6794 28.5752 73.0113 28.5752C72.3432 28.5752 71.007 28.5752 71.007 25.6723V17.4847H67.5923V26.1933C67.5923 29.5428 69.8193 31.9247 73.0113 31.9247C76.2033 31.9247 78.4303 29.5428 78.4303 26.1933V17.4847H75.0156V25.6723ZM108.495 17.0381C104.338 17.0381 100.923 20.3876 100.923 24.6303C100.923 28.7985 104.338 32.2224 108.495 32.2224C112.652 32.2224 116.066 28.7985 116.066 24.6303C116.066 20.462 112.652 17.0381 108.495 17.0381ZM108.495 28.7241C106.193 28.7241 104.412 26.8632 104.412 24.5558C104.412 22.3228 106.193 20.462 108.42 20.3876C110.647 20.3876 112.503 22.174 112.578 24.407V24.4814C112.578 26.8632 110.722 28.7241 108.495 28.7241ZM12.3628 15.1028L4.7168 31.7758H8.57692L10.0616 28.5752H14.664L16.1487 31.7758H20.0088L12.3628 15.1028ZM10.8781 25.7467L12.2886 22.2484L13.699 25.7467H10.8781ZM28.8426 17.5591H23.2751V31.6269H26.764V27.6076H28.6199C32.0346 27.6076 34.1873 25.6723 34.1873 22.5461V22.4717C34.2616 19.42 32.1831 17.5591 28.8426 17.5591ZM30.6984 22.695C30.6984 23.8859 29.8818 24.6303 28.5456 24.6303H26.764V20.7597H28.5456C29.9561 20.6853 30.6984 21.4296 30.6984 22.695ZM43.2438 17.5591H37.6763V31.6269H41.1653V27.6076H43.0211C46.4358 27.6076 48.5886 25.6723 48.5886 22.5461V22.4717C48.6628 19.42 46.5843 17.5591 43.2438 17.5591ZM45.0996 22.695C45.0996 23.8859 44.2831 24.6303 42.9469 24.6303H41.1653V20.7597H42.9469C44.3573 20.6853 45.0996 21.4296 45.0996 22.695ZM58.9812 22.0251C56.2346 21.2808 55.6407 20.983 55.6407 20.0154V19.941C55.6407 19.1967 56.383 18.6756 57.5708 18.6756C59.0554 18.7501 60.4659 19.2711 61.6536 20.2387L61.7278 20.3131L63.6579 17.4847L63.5837 17.4103C61.8763 16.0705 59.7235 15.3261 57.5708 15.3261C54.2303 15.3261 51.8548 17.3358 51.8548 20.2387V20.3131C51.8548 23.6626 54.1561 24.5558 57.2739 25.3001C59.9462 25.97 60.3916 26.4166 60.3916 27.2354V27.3098C60.3916 28.203 59.5751 28.7241 58.2389 28.7241C56.5315 28.6496 54.8242 27.9797 53.5622 26.7888L53.488 26.7144L51.261 29.394L51.3352 29.4684C53.191 31.1803 55.6407 32.0735 58.1646 32.0735C61.8763 32.0735 64.1775 30.1383 64.1775 27.0121V26.9377C64.1775 23.9604 62.099 22.7694 58.9812 22.0251ZM89.9364 32.3713L85.7051 25.2257L84.4432 31.8502H81.3996L84.5174 17.0381L90.0107 26.3422L95.207 17.0381L98.3248 31.8502H95.0585L93.8708 25.3001L89.9364 32.3713Z" fill="white"/>
</g>
</svg>
