<svg width="212" height="168" viewBox="0 0 212 168" fill="none" xmlns="http://www.w3.org/2000/svg">
<path d="M92 105.959C92 105.959 142.572 74.5957 149.165 79.5258C155.758 84.4559 121.138 102.355 121.138 102.355C121.138 102.355 135.808 100.29 135.898 104.344C135.979 108.398 119.476 107.217 119.476 107.217C119.476 107.217 129.199 111.011 126.588 117.572C123.976 124.133 92 105.959 92 105.959Z" fill="white"/>
<path d="M46 150.442C46 150.442 53.4498 156.213 66.2108 161.389C70.567 163.156 75.5468 164.861 81.0631 166.237C87.6291 167.879 93.4295 168.215 98.3224 167.887C109.552 167.136 116 162.89 116 162.89C105.346 148.91 106.072 107.219 106.072 107.219L94.2108 107L46 150.442Z" fill="white"/>
<path d="M46 150.444C46 150.444 59.4081 160.835 81.0631 166.238C102.718 171.642 116 162.892 116 162.892C105.346 148.911 106.072 107.219 106.072 107.219L94.2108 107L46 150.444Z" fill="white"/>
<path d="M60.6652 58.2289L49 58L95.3348 106.779L107 107L60.6652 58.2289Z" fill="#331429"/>
<path d="M0 101.881C31.3967 90.0577 48.0466 58 48.0466 58L95 105.119C95 105.119 78.3579 137.177 46.9534 149L0 101.881Z" fill="#748BCE"/>
<path d="M67 161.349C71.5509 163.127 76.7532 164.842 82.516 166.226C89.3754 167.878 95.435 168.216 100.547 167.886C97.5868 158.375 92.8298 139.196 101 113C101 113 85.4922 150.807 67 161.349Z" fill="#331429"/>
<path d="M97.9205 107C95.5211 111.643 92.8038 116.118 89.9593 120.52C87.1944 124.972 84.056 129.257 80.3138 133.065C75.2367 138.301 69.6432 143.186 63.5809 147.449C62.0554 148.547 60.1168 149.814 58.5039 150.817C57.3677 151.557 56.16 152.209 55 152.927L55.0477 153C67.9032 147.2 77.5806 137.825 85.7483 127.191C89.1171 123.083 92.2794 118.791 94.7265 114.148C95.9739 111.841 97.1101 109.475 98 107.029L97.9205 107Z" fill="#331429"/>
<path d="M102.719 107C101.609 111.792 101.116 116.676 101 121.559C101.009 125.119 101.188 129 101.251 132.529C101.251 141.661 102.316 150.9 105.03 159.741C105.612 161.433 106.266 163.331 106.901 165L107 164.977C106.606 163.255 106.122 161.333 105.675 159.619C103.839 151.306 102.46 142.771 101.707 134.343C101.34 130.186 101.519 125.754 101.833 121.582C102.003 116.767 102.621 111.677 102.719 107Z" fill="#331429"/>
<path d="M70 107C70 107 40.3198 38.25 29.4633 39.0062C18.6069 39.7624 41.6879 82.986 41.6879 82.986C41.6879 82.986 27.6284 70.62 24.4012 74.9279C21.166 79.2357 39.7001 89.3714 39.7001 89.3714C39.7001 89.3714 26.381 86.7439 24.0793 95.627C21.7857 104.502 70 107 70 107Z" fill="white"/>
<path d="M181.877 15.4632C181.877 15.4632 178.114 2.70608 185.824 0.230579C193.534 -2.25283 188.794 16.1434 188.794 16.1434C188.794 16.1434 201.004 -0.220226 206.921 6.42328C212.837 13.0747 192.557 21.0627 192.557 21.0627C192.557 21.0627 212.541 19.9792 211.989 29.027C211.428 38.0828 193.374 27.208 193.374 27.208C193.374 27.208 212.261 42.496 202.861 46.7826C193.454 51.0613 187.833 30.5693 187.833 30.5693C187.833 30.5693 190.676 50.3574 180.5 48.9259C170.331 47.5023 181.18 29.0507 181.18 29.0507C181.18 29.0507 166.592 45.3985 163.35 38.3675C160.099 31.3285 180.572 24.1393 180.572 24.1393C180.572 24.1393 159.811 25.4443 164.343 13.0984C168.874 0.752563 181.877 15.4632 181.877 15.4632Z" fill="#F9B0CC"/>
</svg>
