<svg width="39" height="39" viewBox="0 0 39 39" fill="none" xmlns="http://www.w3.org/2000/svg">
<path d="M15.0243 12.3074C15.0243 12.3074 12.0292 2.15382 18.1659 0.183521C24.3026 -1.79307 20.5301 12.8488 20.5301 12.8488C20.5301 12.8488 30.2481 -0.175282 34.9573 5.11241C39.6665 10.4064 23.5251 16.7642 23.5251 16.7642C23.5251 16.7642 39.4307 15.9018 38.9911 23.1031C38.545 30.3108 24.1751 21.6553 24.1751 21.6553C24.1751 21.6553 39.2077 33.8233 31.7265 37.2351C24.2388 40.6407 19.7654 24.3306 19.7654 24.3306C19.7654 24.3306 22.0276 40.0804 13.9282 38.941C5.83522 37.808 14.4699 23.122 14.4699 23.122C14.4699 23.122 2.85928 36.1335 0.278439 30.5374C-2.30877 24.9349 13.9855 19.2129 13.9855 19.2129C13.9855 19.2129 -2.53816 20.2516 1.06865 10.4253C4.67545 0.598976 15.0243 12.3074 15.0243 12.3074Z" fill="#B4B0F9"/>
</svg>
