<svg width="143" height="47" viewBox="0 0 143 47" fill="none" xmlns="http://www.w3.org/2000/svg">
<g clip-path="url(#clip0_112_683)">
<path d="M0.353516 23.345C0.353516 10.4518 10.8053 0 23.6985 0H119.024C131.917 0 142.369 10.4518 142.369 23.345C142.369 36.2382 131.917 46.69 119.024 46.69H23.6985C10.8053 46.69 0.353516 36.2382 0.353516 23.345Z" fill="#1F1E1E"/>
<path d="M52.9207 13.9535C52.9356 14.2916 52.8819 14.6292 52.7628 14.9459C52.6438 15.2627 52.4619 15.5521 52.2281 15.7968C51.9664 16.0671 51.6505 16.279 51.3012 16.4188C50.9519 16.5586 50.577 16.6231 50.201 16.608C49.8228 16.6164 49.4469 16.5472 49.0965 16.4044C48.7462 16.2617 48.4288 16.0486 48.1642 15.7783C47.627 15.229 47.3262 14.4913 47.3262 13.723C47.3262 12.9547 47.627 12.2169 48.1642 11.6676C48.575 11.2666 49.0951 10.9958 49.6593 10.8894C50.2235 10.7829 50.8065 10.8456 51.3352 11.0694C51.6669 11.2056 51.9636 11.4167 52.2009 11.6861L51.7126 12.1754C51.5296 11.9548 51.2977 11.7799 51.0353 11.6646C50.7729 11.5493 50.4873 11.4967 50.201 11.511C49.8397 11.5135 49.4846 11.6045 49.1666 11.7759C48.8486 11.9474 48.5774 12.1941 48.3768 12.4946C48.1762 12.7951 48.0522 13.1401 48.0157 13.4995C47.9792 13.8589 48.0313 14.2218 48.1675 14.5565C48.3036 14.8911 48.5197 15.1873 48.7967 15.4192C49.0738 15.6511 49.4034 15.8115 49.7568 15.8866C50.1102 15.9616 50.4766 15.949 50.824 15.8497C51.1714 15.7505 51.4892 15.5677 51.7496 15.3172C52.0309 15.0088 52.1942 14.6109 52.2106 14.1938H50.201V13.5294H52.8828C52.9042 13.6704 52.9158 13.8115 52.9197 13.9535H52.9207ZM57.1413 11.6492H54.6521V13.4H56.9195V14.0644H54.6531V15.8153H57.1413V16.4971H53.9323V10.9673H57.1403L57.1413 11.6492ZM60.1635 16.4971H59.4534V11.6492H57.9058V10.9683H61.748V11.6492H60.1635V16.4971ZM64.458 16.4971V10.9673H65.1681V16.4971H64.458ZM68.3197 16.4971H67.6096V11.6492H66.063V10.9683H69.8595V11.6492H68.3206L68.3197 16.4971ZM77.0565 15.7783C76.7904 16.0448 76.4743 16.2562 76.1264 16.4005C75.7785 16.5447 75.4055 16.6189 75.0289 16.6189C74.6523 16.6189 74.2793 16.5447 73.9314 16.4005C73.5835 16.2562 73.2674 16.0448 73.0013 15.7783C72.4803 15.2244 72.1902 14.4926 72.1902 13.7322C72.1902 12.9718 72.4803 12.24 73.0013 11.6861C73.2618 11.4122 73.577 11.196 73.9263 11.0515C74.2757 10.9071 74.6515 10.8376 75.0294 10.8476C75.4066 10.8417 75.7811 10.913 76.1297 11.0572C76.4783 11.2014 76.7937 11.4154 77.0565 11.6861C77.3216 11.9557 77.53 12.2758 77.6693 12.6273C77.8087 12.9788 77.8761 13.3547 77.8678 13.7327C77.8799 14.111 77.8141 14.4878 77.6745 14.8397C77.535 15.1916 77.3246 15.5111 77.0565 15.7783ZM73.5266 15.3172C73.7229 15.5163 73.9569 15.6744 74.2149 15.7823C74.4729 15.8903 74.7498 15.9458 75.0294 15.9458C75.309 15.9458 75.5859 15.8903 75.8439 15.7823C76.1019 15.6744 76.3359 15.5163 76.5322 15.3172C76.9297 14.8851 77.1503 14.3194 77.1503 13.7322C77.1503 13.1451 76.9297 12.5793 76.5322 12.1472C76.3359 11.9481 76.1019 11.79 75.8439 11.6821C75.5859 11.5742 75.309 11.5186 75.0294 11.5186C74.7498 11.5186 74.4729 11.5742 74.2149 11.6821C73.9569 11.79 73.7229 11.9481 73.5266 12.1472C73.1286 12.5793 72.9077 13.1452 72.9077 13.7327C72.9077 14.3201 73.1286 14.8861 73.5266 15.3182V15.3172ZM78.8726 16.4971V10.9673H79.7295L82.421 15.2715V10.9673H83.1311V16.4971H82.3928L79.5817 11.9906V16.4971H78.8726Z" fill="#1F1E1E" stroke="#1F1E1E" stroke-width="0.183842" stroke-miterlimit="10"/>
<path d="M72.0155 24.5608C71.2388 24.5625 70.48 24.7945 69.8352 25.2275C69.1904 25.6605 68.6885 26.2749 68.3929 26.9932C68.0973 27.7114 68.0214 28.5012 68.1747 29.2626C68.3279 30.024 68.7036 30.7229 69.2541 31.2708C69.8046 31.8187 70.5052 32.1911 71.2673 32.3408C72.0295 32.4905 72.8189 32.4108 73.5357 32.1119C74.2526 31.8129 74.8647 31.3081 75.2946 30.6612C75.7245 30.0144 75.953 29.2546 75.951 28.4779C75.9587 27.9599 75.862 27.4456 75.6668 26.9658C75.4716 26.4859 75.1817 26.0503 74.8146 25.6848C74.4475 25.3193 74.0105 25.0314 73.5298 24.8383C73.0491 24.6452 72.5334 24.5508 72.0155 24.5608ZM72.0155 30.8562C71.5397 30.8891 71.065 30.7783 70.6531 30.5379C70.2412 30.2976 69.911 29.9389 69.7056 29.5085C69.5002 29.0781 69.429 28.5959 69.5012 28.1245C69.5735 27.6531 69.7858 27.2143 70.1107 26.8651C70.4355 26.516 70.8579 26.2726 71.3229 26.1667C71.7879 26.0607 72.274 26.097 72.7181 26.271C73.1621 26.4449 73.5436 26.7484 73.813 27.1419C74.0823 27.5355 74.227 28.001 74.2284 28.4779C74.2431 28.7803 74.1972 29.0826 74.0933 29.3669C73.9894 29.6513 73.8296 29.912 73.6234 30.1336C73.4171 30.3553 73.1686 30.5334 72.8925 30.6575C72.6163 30.7816 72.3181 30.8491 72.0155 30.8562ZM63.4264 24.5608C62.6498 24.5625 61.891 24.7945 61.2462 25.2275C60.6014 25.6605 60.0995 26.2749 59.8039 26.9932C59.5083 27.7114 59.4323 28.5012 59.5856 29.2626C59.7389 30.024 60.1146 30.7229 60.6651 31.2708C61.2156 31.8187 61.9162 32.1911 62.6783 32.3408C63.4404 32.4905 64.2299 32.4108 64.9467 32.1119C65.6636 31.8129 66.2757 31.3081 66.7056 30.6612C67.1355 30.0144 67.364 29.2546 67.362 28.4779C67.3696 27.9598 67.2728 27.4456 67.0774 26.9657C66.8821 26.4858 66.5922 26.0502 66.225 25.6847C65.8577 25.3192 65.4207 25.0314 64.94 24.8383C64.4592 24.6452 63.9445 24.5508 63.4264 24.5608ZM63.4264 30.8562C62.9507 30.8893 62.4759 30.7786 62.0638 30.5384C61.6518 30.2982 61.3215 29.9396 61.116 29.5093C60.9104 29.0789 60.839 28.5966 60.9111 28.1252C60.9832 27.6537 61.1955 27.2148 61.5203 26.8656C61.8451 26.5163 62.2675 26.2729 62.7325 26.1668C63.1975 26.0608 63.6837 26.0971 64.1278 26.2709C64.5719 26.4448 64.9535 26.7483 65.2229 27.1418C65.4923 27.5354 65.637 28.0009 65.6384 28.4779C65.6537 28.7803 65.6082 29.0828 65.5045 29.3673C65.4009 29.6518 65.2412 29.9127 65.035 30.1344C64.8287 30.3562 64.5801 30.5343 64.3038 30.6583C64.0275 30.7822 63.7292 30.8495 63.4264 30.8562ZM53.215 25.7689V27.4274H57.1963C57.1338 28.2084 56.8092 28.9454 56.2751 29.5187C55.8757 29.9257 55.3953 30.2444 54.865 30.454C54.3347 30.6636 53.7662 30.7595 53.1965 30.7355C52.6101 30.7442 52.0278 30.6362 51.4835 30.4179C50.9392 30.1995 50.4438 29.875 50.026 29.4634C49.6082 29.0518 49.2765 28.5612 49.0501 28.0202C48.8236 27.4792 48.707 26.8986 48.707 26.3122C48.707 25.7257 48.8236 25.1451 49.0501 24.6041C49.2765 24.0631 49.6082 23.5725 50.026 23.1609C50.4438 22.7493 50.9392 22.4248 51.4835 22.2064C52.0278 21.9881 52.6101 21.8801 53.1965 21.8888C54.3213 21.8719 55.4075 22.2989 56.2197 23.0774L57.3898 21.9072C56.8406 21.3639 56.1884 20.9356 55.4715 20.6475C54.7546 20.3594 53.9875 20.2172 53.215 20.2293C52.1887 20.1889 51.1689 20.4087 50.2504 20.8683C49.3318 21.3278 48.5445 22.0122 47.9615 22.8578C47.3785 23.7034 47.0188 24.6826 46.9159 25.7045C46.813 26.7264 46.9702 27.7578 47.3729 28.7026C47.8566 29.8391 48.6743 30.8017 49.7177 31.4627C50.7611 32.1237 51.9808 32.4519 53.215 32.4037C54.0034 32.4353 54.7895 32.2997 55.5218 32.0058C56.2541 31.7119 56.9159 31.2664 57.4638 30.6986C58.4313 29.6356 58.947 28.2376 58.9014 26.8009C58.9049 26.4548 58.8772 26.1091 58.8187 25.7679H53.2159L53.215 25.7689ZM94.9733 27.0587C94.733 26.3515 94.2835 25.734 93.6844 25.2879C93.0853 24.8418 92.3649 24.5883 91.6185 24.5608C91.1143 24.5598 90.6153 24.6622 90.1523 24.8617C89.6893 25.0613 89.2722 25.3536 88.9267 25.7207C88.5811 26.0879 88.3146 26.522 88.1435 26.9962C87.9724 27.4704 87.9004 27.9747 87.9319 28.4779C87.9238 29.3193 88.1883 30.1408 88.6856 30.8195C89.183 31.4983 89.8867 31.9979 90.6914 32.2437C91.4962 32.4895 92.3589 32.4684 93.1507 32.1834C93.9424 31.8984 94.6207 31.3649 95.0842 30.6626L93.7477 29.7405C93.5487 30.0726 93.2662 30.347 92.9283 30.5362C92.5905 30.7255 92.209 30.823 91.8218 30.8192C91.4222 30.8355 91.0271 30.7307 90.6882 30.5184C90.3493 30.3061 90.0826 29.9962 89.923 29.6296L95.1669 27.4643L94.9733 27.0587ZM89.6283 28.367C89.6096 28.0808 89.6482 27.7938 89.7419 27.5227C89.8355 27.2516 89.9823 27.0019 90.1736 26.7882C90.3649 26.5746 90.5969 26.4012 90.856 26.2783C91.1151 26.1553 91.3961 26.0854 91.6827 26.0724C91.9797 26.054 92.2755 26.1238 92.533 26.273C92.7905 26.4222 92.9982 26.6441 93.13 26.9109L89.6283 28.367ZM85.3698 32.1645H87.0934V20.6447H85.3708L85.3698 32.1645ZM82.5499 25.4362H82.4857C82.2281 25.143 81.9102 24.909 81.5538 24.75C81.1974 24.591 80.8109 24.5109 80.4206 24.5151C79.4126 24.5627 78.4617 24.9967 77.7652 25.7269C77.0687 26.4571 76.6801 27.4274 76.6801 28.4365C76.6801 29.4457 77.0687 30.416 77.7652 31.1462C78.4617 31.8764 79.4126 32.3104 80.4206 32.358C80.8114 32.366 81.1992 32.2876 81.5562 32.1283C81.9131 31.9691 82.2305 31.733 82.4857 31.4369H82.5499V31.9981C82.5499 33.501 81.7484 34.3034 80.4586 34.3034C80.0273 34.294 79.6085 34.1566 79.2555 33.9086C78.9025 33.6605 78.6312 33.3131 78.4762 32.9105L76.9831 33.5282C77.2591 34.2215 77.739 34.8148 78.3594 35.2295C78.9798 35.6443 79.7114 35.861 80.4576 35.851C82.476 35.851 84.1442 34.6624 84.1442 31.7686V24.7913H82.5499V25.4362ZM80.5685 30.8562C79.9625 30.8214 79.3928 30.5563 78.976 30.115C78.5593 29.6737 78.3271 29.0897 78.3271 28.4827C78.3271 27.8758 78.5593 27.2918 78.976 26.8505C79.3928 26.4092 79.9625 26.1441 80.5685 26.1093C80.8636 26.122 81.1532 26.194 81.4199 26.3209C81.6867 26.4478 81.9252 26.6271 82.1212 26.8481C82.3173 27.0691 82.4668 27.3273 82.561 27.6073C82.6552 27.8873 82.6921 28.1833 82.6695 28.4779C82.6948 28.7735 82.6598 29.0711 82.5667 29.3527C82.4735 29.6344 82.3243 29.8942 82.1279 30.1166C81.9315 30.3389 81.692 30.5191 81.424 30.6462C81.1559 30.7733 80.8649 30.8447 80.5685 30.8562ZM103.047 20.6447H98.9177V32.1645H100.641V27.796H103.047C103.662 27.8407 104.279 27.7257 104.837 27.4622C105.394 27.1987 105.875 26.7956 106.231 26.2919C106.588 25.7883 106.808 25.2012 106.871 24.5874C106.934 23.9736 106.837 23.354 106.59 22.7885C106.394 22.3369 106.107 21.9306 105.746 21.5952C105.386 21.2597 104.96 21.0024 104.495 20.8392C104.031 20.6755 103.538 20.6092 103.047 20.6447ZM103.047 26.1735H100.641V22.2477H103.084C103.408 22.248 103.727 22.3283 104.013 22.4813C104.299 22.6343 104.543 22.8554 104.723 23.1251C104.903 23.3947 105.014 23.7046 105.046 24.0272C105.078 24.3499 105.03 24.6755 104.906 24.9752C104.807 25.2146 104.662 25.4321 104.479 25.6152C104.296 25.7983 104.078 25.9435 103.839 26.0422C103.599 26.1414 103.343 26.192 103.084 26.192L103.047 26.1735ZM113.682 24.5238C113.055 24.4852 112.43 24.6314 111.884 24.9443C111.339 25.2572 110.897 25.7231 110.614 26.2844L112.134 26.9206C112.288 26.6437 112.518 26.4173 112.798 26.2685C113.077 26.1197 113.394 26.055 113.71 26.0821C113.928 26.0562 114.15 26.0742 114.362 26.1351C114.574 26.196 114.771 26.2985 114.943 26.4366C115.115 26.5748 115.257 26.7457 115.362 26.9396C115.466 27.1334 115.531 27.3462 115.553 27.5655V27.6764C114.999 27.385 114.382 27.2331 113.755 27.2338C112.115 27.2338 110.438 28.1549 110.438 29.8329C110.454 30.1896 110.541 30.5396 110.695 30.8619C110.848 31.1842 111.065 31.4723 111.333 31.7088C111.6 31.9453 111.913 32.1255 112.251 32.2386C112.59 32.3516 112.948 32.3952 113.304 32.3668C113.736 32.3909 114.167 32.2995 114.553 32.1021C114.938 31.9047 115.264 31.6083 115.497 31.2433H115.553V32.1645H117.211V27.7318C117.211 25.7134 115.682 24.5423 113.719 24.5423L113.682 24.5238ZM113.47 30.8367C112.908 30.8367 112.124 30.5517 112.124 29.8601C112.124 28.9389 113.102 28.6248 113.967 28.6248C114.515 28.6116 115.056 28.7456 115.534 29.0129C115.477 29.5134 115.24 29.9761 114.867 30.3151C114.494 30.654 114.011 30.8463 113.507 30.8562L113.47 30.8367ZM123.258 24.7913L121.285 29.7871H121.23L119.184 24.7913H117.341L120.41 31.7773L118.659 35.6574H120.456L125.175 24.7923H123.258V24.7913ZM107.774 32.1645H109.489V20.6447H107.774V32.1645ZM18.5525 34.923C18.1848 34.7382 18.001 34.2811 18.001 33.8219V13.1782C18.001 12.8114 18.0924 12.5362 18.1848 12.1695C18.2763 11.9856 18.4601 11.8027 18.6439 11.6189C22.5931 15.5642 26.4519 19.5095 30.3096 23.4538C26.3604 27.1239 22.5017 30.9787 18.5525 34.923ZM34.1674 19.4171C33.0653 20.5182 31.8718 21.6193 30.7687 22.8119C27.0948 19.0504 23.3285 15.2889 19.6546 11.5275C19.6546 11.5275 19.6546 11.436 19.746 11.436C24.522 14.0964 29.299 16.7567 34.1674 19.4171ZM19.6546 34.923C23.3285 31.253 27.0948 27.583 30.7687 23.913C31.7794 24.9226 32.8815 25.9323 34.076 27.0324C29.299 29.6938 24.523 32.3541 19.746 34.923H19.6546ZM34.7189 26.6657C33.5244 25.5646 32.4223 24.4635 31.2279 23.3634L34.8103 19.7848C35.178 19.9686 35.5447 20.1515 35.9124 20.4268C36.8307 20.9773 37.8413 21.4365 38.7605 21.987C39.0358 22.0784 39.2196 22.2623 39.4025 22.5376C39.7702 22.9957 39.7702 23.4548 39.4025 23.913C39.2196 24.0978 39.0358 24.2806 38.7605 24.3721C37.4746 25.1979 36.0963 25.9323 34.7189 26.6657Z" fill="white"/>
</g>
<defs>
<clipPath id="clip0_112_683">
<rect width="142.988" height="46.69" fill="white" transform="translate(0.00585938)"/>
</clipPath>
</defs>
</svg>
