<svg width="112" height="18" viewBox="0 0 112 18" fill="none" xmlns="http://www.w3.org/2000/svg">
<g id="NBC_News_2018 1" clip-path="url(#clip0_112_226)">
<g id="layer1">
<g id="g3256">
<g id="g3258">
<path id="path3260" d="M4.09436 4.94439C2.80354 6.08702 2.33346 8.67593 4.66061 10.1893L13.9446 16.4169L9.44306 6.33377C8.49984 3.95438 5.91945 3.43541 4.09436 4.94439Z" fill="white"/>
<path id="path3262" d="M12.0863 0.0419098C10.577 0.0719205 8.31103 1.82909 9.31968 4.51215L13.9753 15.2476L15.6111 3.95596C15.9897 1.15019 13.8183 -0.145045 12.0863 0.0419098Z" fill="white"/>
<path id="path3264" d="M16.3371 3.52524H17.2175C17.2175 3.52524 17.6876 3.52524 17.7514 3.74209C17.4051 4.01875 16.4622 4.05331 16.5872 5.53083L18.0673 15.246L22.6911 4.48235C23.637 2.07906 21.6517 0.0719097 19.8908 0.0105545C19.8084 0.00466441 19.726 0 19.6406 0C18.0598 0 16.2486 1.12328 16.3371 3.52524Z" fill="white"/>
<path id="path3266" d="M22.5053 6.42513L18.1318 16.3873L27.4128 10.1269C29.5523 8.64325 29.2073 6.27119 28.0096 5.09866C27.5075 4.5468 26.5858 4.12054 25.6093 4.12054C24.4555 4.12034 23.2211 4.71864 22.5053 6.42513Z" fill="white"/>
<path id="path3268" d="M26.3734 11.5445L17.6572 17.497H28.3893C30.5912 17.497 32.0059 15.2774 31.3771 13.2404C30.9559 11.9602 29.7092 10.9552 28.2625 10.9537C27.6536 10.9539 27.008 11.1332 26.3734 11.5445Z" fill="white"/>
<path id="path3270" d="M3.8442 17.4971H14.4178L5.69968 11.5445C3.68543 10.2792 1.42089 11.0196 0.603094 13.1192C-0.0898339 15.5228 1.64067 17.4971 3.8442 17.4971Z" fill="white"/>
</g>
<path id="path3272" d="M37.5869 17.5171V0.179016H42.0959L48.9147 9.70882V0.179016H53.2093V17.5171H49.4126L41.9437 7.31091V17.5171H37.5869Z" fill="white"/>
</g>
<path id="path3274" d="M55.8857 17.5171V0.179016H69.3919V4.01553H60.5289V6.88063H67.3753V10.6679H60.5289V13.6437H69.6409V17.5171H55.8857Z" fill="white"/>
<path id="path3276" d="M70.4219 0.179016H75.1456L77.9842 11.1097L80.9059 0.179016H85.1553L88.1465 11.1227L90.9352 0.179016H95.5263L90.94 17.5171H85.8851L82.9252 6.43669L79.9653 17.5171H74.9894L70.4219 0.179016Z" fill="white"/>
<path id="path3278" d="M100.345 11.4062L95.998 11.5354C95.998 14.7964 98.1255 18 104.254 18C107.927 18 111.449 16.4524 111.449 12.4423C111.449 4.89386 101.043 8.20245 101.043 5.17501C101.043 4.38317 101.818 3.61596 103.37 3.61596C105.385 3.61596 106.706 4.64807 106.754 6.24581L111.125 6.181C111.021 2.60832 108.698 0.0139771 103.563 0.0139771C99.3944 0.0139771 96.3878 2.06749 96.3878 5.5875C96.3878 12.9243 106.824 9.96935 106.824 12.7318C106.824 13.6007 105.908 14.2898 104.134 14.2898C101.524 14.2898 100.474 12.9412 100.345 11.4062Z" fill="white"/>
</g>
</g>
<defs>
<clipPath id="clip0_112_226">
<rect width="111" height="18" fill="white" transform="translate(0.448242)"/>
</clipPath>
</defs>
</svg>
