<svg width="48" height="48" viewBox="0 0 48 48" fill="none" xmlns="http://www.w3.org/2000/svg">
<rect x="0.5" y="0.5" width="47" height="47" rx="23.5" fill="white"/>
<rect x="0.5" y="0.5" width="47" height="47" rx="23.5" stroke="#D3D3D3"/>
<path fill-rule="evenodd" clip-rule="evenodd" d="M24.9697 16.7196C25.1104 16.579 25.3011 16.5 25.5 16.5C25.6989 16.5 25.8896 16.579 26.0303 16.7196L32.7803 23.4696C32.9209 23.6102 32.9998 23.801 32.9998 23.9998C32.9998 24.1987 32.9209 24.3894 32.7803 24.5301L26.0303 31.2801C25.8888 31.4167 25.6993 31.4923 25.5027 31.4906C25.3061 31.4889 25.1179 31.41 24.9789 31.271C24.8398 31.1319 24.761 30.9438 24.7592 30.7471C24.7575 30.5505 24.8331 30.361 24.9697 30.2196L30.4395 24.7498H15.75C15.5511 24.7498 15.3603 24.6708 15.2197 24.5302C15.079 24.3895 15 24.1988 15 23.9998C15 23.8009 15.079 23.6102 15.2197 23.4695C15.3603 23.3289 15.5511 23.2498 15.75 23.2498H30.4395L24.9697 17.7801C24.8291 17.6394 24.7502 17.4487 24.7502 17.2498C24.7502 17.051 24.8291 16.8602 24.9697 16.7196Z" fill="#1F1E1E"/>
</svg>
