<svg width="150" height="343" viewBox="0 0 150 343" fill="none" xmlns="http://www.w3.org/2000/svg">
<g clip-path="url(#clip0_386_625)">
<g clip-path="url(#clip1_386_625)">
<g clip-path="url(#clip2_386_625)">
<mask id="mask0_386_625" style="mask-type:luminance" maskUnits="userSpaceOnUse" x="0" y="0" width="150" height="343">
<path d="M150 0H0V343H150V0Z" fill="white"/>
</mask>
<g mask="url(#mask0_386_625)">
<mask id="mask1_386_625" style="mask-type:alpha" maskUnits="userSpaceOnUse" x="3" y="-34" width="373" height="373">
<mask id="mask2_386_625" style="mask-type:luminance" maskUnits="userSpaceOnUse" x="-1" y="-38" width="382" height="382">
<path d="M-0.417866 54.1604L91.1602 343.271L380.271 251.693L288.693 -37.4176L-0.417866 54.1604Z" fill="white"/>
</mask>
<g mask="url(#mask2_386_625)">
<path d="M14.9393 49.2971L13.1352 49.8685L17.4285 63.422L3.875 67.7152L4.44646 69.5193L18 65.226L26.5846 92.3272L13.0312 96.6204L13.6026 98.4245L27.1561 94.1312L35.7408 121.232L22.1873 125.526L22.7588 127.33L36.3122 123.036L44.8969 150.138L31.3435 154.431L31.9149 156.235L45.4684 151.942L54.0531 179.043L40.4996 183.336L41.071 185.14L54.6245 180.847L63.2092 207.948L49.6557 212.241L50.2272 214.045L63.7807 209.752L72.3653 236.853L58.8119 241.146L59.3833 242.95L72.9368 238.657L81.5215 265.758L67.968 270.052L68.5395 271.856L82.0929 267.562L90.6776 294.663L77.1242 298.957L77.6956 300.761L91.2491 296.468L99.8502 323.621L86.2968 327.914L86.8682 329.718L100.422 325.425L104.715 338.978L106.519 338.407L102.226 324.853L129.333 316.267L133.626 329.82L135.43 329.249L131.137 315.695L158.244 307.109L162.537 320.662L164.341 320.091L160.048 306.537L187.155 297.951L191.448 311.504L193.252 310.933L188.959 297.379L216.066 288.793L220.359 302.346L222.163 301.775L217.87 288.221L244.977 279.635L249.27 293.188L251.074 292.617L246.781 279.063L273.888 270.477L278.181 284.03L279.985 283.459L275.692 269.905L302.799 261.319L307.092 274.872L308.896 274.301L304.603 260.748L331.71 252.161L336.003 265.714L337.807 265.143L333.514 251.59L360.621 243.003L364.914 256.556L366.718 255.985L362.425 242.432L375.978 238.138L375.407 236.334L361.853 240.628L353.267 213.521L366.82 209.227L366.249 207.423L352.695 211.717L344.111 184.615L357.664 180.322L357.093 178.518L343.539 182.811L334.955 155.71L348.508 151.417L347.937 149.613L334.383 153.906L325.798 126.805L339.352 122.512L338.78 120.708L325.227 125.001L316.642 97.8999L330.196 93.6066L329.624 91.8026L316.071 96.0958L307.486 68.9947L321.04 64.7014L320.468 62.8974L306.915 67.1906L298.33 40.0895L311.884 35.7962L311.312 33.9922L297.759 38.2854L289.174 11.1843L302.727 6.89108L302.156 5.08703L288.602 9.38028L280.018 -17.7209L293.571 -22.0142L293 -23.8182L279.446 -19.5249L275.153 -33.0784L273.349 -32.507L277.642 -18.9535L250.535 -10.367L246.242 -23.9204L244.438 -23.349L248.731 -9.79549L221.624 -1.20897L217.331 -14.7625L215.527 -14.191L219.82 -0.637516L192.713 7.949L188.42 -5.60447L186.616 -5.03301L190.909 8.52046L163.802 17.1069L159.509 3.5535L157.705 4.12496L161.998 17.6784L134.891 26.2649L130.598 12.7114L128.794 13.2829L133.087 26.8364L105.981 35.4229L101.687 21.8694L99.8828 22.4409L104.176 35.9943L77.0691 44.5809L72.7759 31.0274L70.9718 31.5988L75.2651 45.1523L48.1582 53.7388L43.8649 40.1854L42.0609 40.7568L46.3541 54.3103L19.2472 62.8968L14.9539 49.3433L14.9393 49.2971ZM28.3905 91.7615L19.8058 64.6604L46.9128 56.0739L55.4974 83.175L28.3905 91.7615ZM57.3015 82.6036L48.7168 55.5024L75.8237 46.9159L84.4084 74.017L57.3015 82.6036ZM86.2125 73.4456L77.6278 46.3444L104.735 37.7579L113.32 64.8591L86.2125 73.4456ZM115.124 64.2876L106.539 37.1865L133.646 28.5999L142.231 55.7011L115.124 64.2876ZM37.5485 120.672L28.9638 93.5713L56.0707 84.9848L64.6554 112.086L37.5485 120.672ZM66.4595 111.515L57.8748 84.4134L84.9817 75.8268L93.5664 102.928L66.4595 111.515ZM95.3704 102.357L86.7857 75.2554L113.893 66.6689L122.478 93.77L95.3704 102.357ZM124.282 93.1986L115.697 66.0974L142.804 57.5109L151.389 84.6121L124.282 93.1986ZM46.7065 149.583L38.1218 122.482L65.2287 113.896L73.8134 140.997L46.7065 149.583ZM75.6174 140.425L67.0327 113.324L94.1397 104.738L102.725 131.839L75.6174 140.425ZM104.529 131.268L95.9437 104.166L123.051 95.5799L131.636 122.681L104.529 131.268ZM133.44 122.11L124.855 95.0084L151.962 86.4219L160.547 113.523L133.44 122.11ZM55.8644 178.494L47.2797 151.393L74.3867 142.807L82.9714 169.908L55.8644 178.494ZM84.7754 169.336L76.1907 142.235L103.298 133.649L111.883 160.75L84.7754 169.336ZM113.687 160.178L105.102 133.077L132.209 124.491L140.794 151.592L113.687 160.178ZM142.598 151.021L134.013 123.919L161.12 115.333L169.705 142.434L142.598 151.021ZM65.0224 207.405L56.4377 180.304L83.5446 171.718L92.1293 198.819L65.0224 207.405ZM93.9334 198.247L85.3487 171.146L112.456 162.56L121.041 189.661L93.9334 198.247ZM122.845 189.089L114.26 161.988L141.367 153.402L149.952 180.503L122.845 189.089ZM151.756 179.931L143.171 152.83L170.278 144.244L178.863 171.345L151.756 179.931ZM74.1804 236.316L65.5957 209.215L92.7026 200.629L101.288 227.73L74.1804 236.316ZM103.092 227.158L94.5067 200.057L121.614 191.471L130.199 218.572L103.092 227.158ZM132.003 218L123.418 190.899L150.525 182.313L159.11 209.414L132.003 218ZM160.914 208.842L152.329 181.741L179.436 173.155L188.021 200.256L160.914 208.842ZM83.3383 265.227L74.7537 238.126L101.861 229.54L110.446 256.641L83.3383 265.227ZM112.25 256.069L103.665 228.968L130.772 220.382L139.357 247.483L112.25 256.069ZM141.161 246.911L132.576 219.81L159.683 211.224L168.268 238.325L141.161 246.911ZM170.072 237.753L161.487 210.652L188.594 202.066L197.179 229.167L170.072 237.753ZM92.4963 294.138L83.9116 267.037L111.019 258.451L119.604 285.552L92.4963 294.138ZM121.408 284.98L112.823 257.879L139.93 249.293L148.515 276.394L121.408 284.98ZM150.319 275.822L141.734 248.721L168.841 240.135L177.426 267.236L150.319 275.822ZM179.23 266.664L170.645 239.563L197.752 230.977L206.337 258.078L179.23 266.664ZM101.655 323.049L93.0678 295.942L120.175 287.356L128.762 314.463L101.655 323.049ZM130.566 313.891L121.979 286.784L149.086 278.198L157.673 305.305L130.566 313.891ZM159.477 304.733L150.89 277.626L177.997 269.04L186.584 296.147L159.477 304.733ZM188.388 295.575L179.801 268.468L206.908 259.882L215.495 286.989L188.388 295.575ZM351.463 214.092L360.049 241.199L332.942 249.786L324.356 222.679L351.463 214.092ZM322.552 223.25L331.138 250.357L304.031 258.943L295.445 231.837L322.552 223.25ZM293.641 232.408L302.227 259.515L275.12 268.101L266.534 240.995L293.641 232.408ZM264.73 241.566L273.316 268.673L246.21 277.259L237.623 250.152L264.73 241.566ZM235.819 250.724L244.405 277.831L217.299 286.417L208.712 259.31L235.819 250.724ZM342.305 185.181L350.89 212.282L323.783 220.869L315.198 193.768L342.305 185.181ZM313.394 194.339L321.979 221.44L294.872 230.027L286.287 202.926L313.394 194.339ZM284.483 203.497L293.068 230.598L265.961 239.185L257.376 212.084L284.483 203.497ZM255.572 212.655L264.157 239.756L237.05 248.343L228.465 221.242L255.572 212.655ZM226.661 221.813L235.246 248.914L208.139 257.501L199.554 230.399L226.661 221.813ZM333.147 156.27L341.732 183.371L314.625 191.958L306.04 164.857L333.147 156.27ZM304.236 165.428L312.821 192.529L285.714 201.116L277.129 174.015L304.236 165.428ZM275.325 174.586L283.91 201.687L256.803 210.274L248.218 183.173L275.325 174.586ZM246.414 183.744L254.999 210.845L227.892 219.432L219.307 192.331L246.414 183.744ZM217.503 192.902L226.088 220.003L198.981 228.59L190.396 201.489L217.503 192.902ZM323.989 127.359L332.574 154.46L305.467 163.047L296.882 135.946L323.989 127.359ZM295.078 136.517L303.663 163.618L276.556 172.205L267.971 145.104L295.078 136.517ZM266.167 145.675L274.752 172.776L247.645 181.363L239.06 154.262L266.167 145.675ZM237.256 154.833L245.841 181.934L218.734 190.521L210.149 163.42L237.256 154.833ZM208.345 163.991L216.93 191.092L189.823 199.679L181.238 172.578L208.345 163.991ZM314.831 98.4482L323.416 125.549L296.309 134.136L287.724 107.035L314.831 98.4482ZM285.92 107.606L294.505 134.707L267.398 143.294L258.813 116.193L285.92 107.606ZM257.009 116.764L265.594 143.865L238.487 152.452L229.902 125.351L257.009 116.764ZM228.098 125.922L236.683 153.023L209.576 161.61L200.991 134.509L228.098 125.922ZM199.187 135.08L207.772 162.181L180.665 170.768L172.08 143.667L199.187 135.08ZM305.673 69.5372L314.258 96.6383L287.151 105.225L278.566 78.1237L305.673 69.5372ZM276.762 78.6952L285.347 105.796L258.24 114.383L249.655 87.2817L276.762 78.6952ZM247.851 87.8532L256.436 114.954L229.329 123.541L220.744 96.4397L247.851 87.8532ZM218.94 97.0111L227.525 124.112L200.418 132.699L191.833 105.598L218.94 97.0111ZM190.029 106.169L198.614 133.27L171.507 141.857L162.922 114.756L190.029 106.169ZM296.515 40.6262L305.1 67.7274L277.993 76.3139L269.408 49.2128L296.515 40.6262ZM267.604 49.7842L276.189 76.8854L249.082 85.4719L240.497 58.3707L267.604 49.7842ZM238.693 58.9422L247.278 86.0433L220.171 94.6298L211.586 67.5287L238.693 58.9422ZM209.782 68.1002L218.367 95.2013L191.26 103.788L182.675 76.6867L209.782 68.1002ZM180.871 77.2581L189.456 104.359L162.349 112.946L153.764 85.8446L180.871 77.2581ZM287.357 11.7153L295.942 38.8164L268.835 47.4029L260.25 20.3018L287.357 11.7153ZM258.446 20.8732L267.031 47.9744L239.924 56.5609L231.339 29.4598L258.446 20.8732ZM229.535 30.0312L238.12 57.1324L211.013 65.7189L202.428 38.6177L229.535 30.0312ZM200.624 39.1892L209.209 66.2903L182.102 74.8768L173.517 47.7757L200.624 39.1892ZM171.713 48.3471L180.298 75.4483L153.191 84.0348L144.606 56.9337L171.713 48.3471ZM278.199 -17.1957L286.784 9.90549L259.677 18.492L251.092 -8.60915L278.199 -17.1957ZM249.288 -8.0377L257.873 19.0634L230.766 27.6499L222.181 0.548824L249.288 -8.0377ZM220.377 1.12028L228.962 28.2214L201.855 36.8079L193.27 9.70679L220.377 1.12028ZM191.466 10.2782L200.051 37.3794L172.944 45.9659L164.359 18.8647L191.466 10.2782ZM162.555 19.4362L171.14 46.5373L144.033 55.1239L135.448 28.0227L162.555 19.4362Z" fill="#BFC2C1"/>
</g>
</mask>
<g mask="url(#mask1_386_625)">
<path d="M150 0H-105V343H150V0Z" fill="#D9D9D9"/>
</g>
</g>
</g>
</g>
</g>
<defs>
<clipPath id="clip0_386_625">
<rect width="150" height="343" fill="white"/>
</clipPath>
<clipPath id="clip1_386_625">
<rect width="150" height="343" fill="white"/>
</clipPath>
<clipPath id="clip2_386_625">
<rect width="150" height="343" fill="white"/>
</clipPath>
</defs>
</svg>
