<svg width="87" height="87" viewBox="0 0 87 87" fill="none" xmlns="http://www.w3.org/2000/svg">
<g id="Sketch-annotation-element-stroke-line-arrow-spiral-up">
<path id="Vector" d="M68.4671 69.785C70.3305 55.3642 68.5478 40.5838 58.7816 28.9247C49.9664 18.4011 37.1417 15.4742 29.8817 29.2834C26.4448 35.8204 26.7395 45.8683 32.9356 50.7341C39.8386 56.155 45.5931 46.1902 45.7981 40.3688C46.2771 26.7722 36.1919 13.1047 21.3838 11.3892C3.84767 9.35759 4.57248 27.5042 4.68472 27.4598" stroke="#1F1E1E" stroke-width="2" stroke-miterlimit="1.5" stroke-linecap="round" stroke-linejoin="round"/>
<path id="Vector_2" d="M81.5485 60.2284C79.971 60.5414 78.6963 61.4718 77.3766 62.335C73.0432 65.1689 69.282 69.6064 68.064 74.7563C67.5718 69.0448 65.0077 61.7954 59.6074 59.1261" stroke="#1F1E1E" stroke-width="2" stroke-miterlimit="1.5" stroke-linecap="round" stroke-linejoin="round"/>
</g>
</svg>
