<svg width="35" height="34" viewBox="0 0 35 34" fill="none" xmlns="http://www.w3.org/2000/svg">
<g id="stacksocial 2" clip-path="url(#clip0_112_218)">
<path id="Vector" d="M6.92163 4.59003H28.931C30.0439 4.59003 30.9483 5.49216 30.9483 6.60736C30.9483 7.72256 30.0462 8.62469 28.931 8.62469H6.92163C5.8087 8.62469 4.9043 7.72256 4.9043 6.60736C4.9043 5.49216 5.80643 4.59003 6.92163 4.59003Z" fill="white"/>
<path id="Vector_2" d="M3.948 11.6892H25.9505C27.0635 11.6892 27.9679 12.5913 27.9679 13.7065C27.9679 14.8217 27.0657 15.7239 25.9505 15.7239H3.948C2.83506 15.7239 1.93066 14.8217 1.93066 13.7065C1.93066 12.5913 2.8328 11.6892 3.948 11.6892Z" fill="white"/>
<path id="Vector_3" d="M8.93921 18.8383H30.9485C32.0569 18.8496 32.9523 19.7449 32.9659 20.8556C32.9659 21.9685 32.0637 22.8729 30.9485 22.8729H8.93921C7.82627 22.8729 6.92188 21.9708 6.92188 20.8556C6.92188 19.7404 7.82401 18.8383 8.93921 18.8383Z" fill="white"/>
<path id="Vector_4" d="M5.91577 25.9374H27.9251C29.0312 25.9533 29.9266 26.8464 29.9424 27.9548C29.947 29.0654 29.0494 29.9676 27.941 29.9721C27.9364 29.9721 27.9319 29.9721 27.9274 29.9721H5.91577C4.80964 29.9562 3.9143 29.0632 3.89844 27.9548C3.9483 26.8622 4.82324 25.9873 5.91577 25.9374Z" fill="white"/>
</g>
<defs>
<clipPath id="clip0_112_218">
<rect width="34" height="34" fill="white" transform="translate(0.448242)"/>
</clipPath>
</defs>
</svg>
